<svg width="32" height="30" viewBox="0 0 32 30" fill="none" xmlns="http://www.w3.org/2000/svg">
<path d="M22.5734 5.12522C22.3569 5.0374 22.1194 5.00501 21.8851 5.03137C21.6509 5.05772 21.4283 5.14187 21.2401 5.27522L14.8667 10.0002H10.0001C9.64646 10.0002 9.30732 10.1319 9.05727 10.3663C8.80722 10.6008 8.66675 10.9187 8.66675 11.2502V18.7502C8.66675 19.0817 8.80722 19.3997 9.05727 19.6341C9.30732 19.8685 9.64646 20.0002 10.0001 20.0002H14.8667L21.1734 24.7252C21.408 24.9017 21.6993 24.9986 22.0001 25.0002C22.1992 25.0033 22.3961 24.9604 22.5734 24.8752C22.8003 24.7739 22.992 24.6145 23.1265 24.4155C23.261 24.2165 23.3327 23.9858 23.3334 23.7502V6.25022C23.3327 6.01462 23.261 5.78399 23.1265 5.58495C22.992 5.3859 22.8003 5.22653 22.5734 5.12522ZM20.6667 21.1502L16.1601 17.7752C15.9255 17.5988 15.6342 17.5019 15.3334 17.5002H11.3334V12.5002H15.3334C15.6342 12.4986 15.9255 12.4017 16.1601 12.2252L20.6667 8.85022V21.1502Z" fill="black"/>
</svg>
